<?xml version="1.0" encoding="UTF-8"?>
<svg id="Layer_1" xmlns="http://www.w3.org/2000/svg" version="1.1" viewBox="0 0 1080 1080">
  <!-- Generator: Adobe Illustrator 29.7.1, SVG Export Plug-In . SVG Version: 2.1.1 Build 8)  -->
  <defs>
    <style>
      .st0 {
        fill: #0f0c36;
      }

      .st1 {
        fill: #e2c8e1;
      }
    </style>
  </defs>
  <rect class="st1" width="1080" height="1080"/>
  <g>
    <g>
      <path class="st0" d="M780.12,449.64c-43.71,0-79.27,35.56-79.27,79.27,0,57.37,72.02,108.46,75.08,110.61l4.15,2.9,4.17-2.87c3.07-2.11,75.13-52.38,75.13-110.64,0-43.71-35.56-79.27-79.26-79.27ZM781.13,623.73l-.99.76-.98-.76c-14.95-11.62-63.73-52.79-63.73-94.81,0-35.67,29.02-64.69,64.69-64.69s64.69,29.02,64.69,64.69c0,42.57-48.74,83.34-63.67,94.82Z"/>
      <path class="st0" d="M812.81,517.85c0,18.02-14.66,32.69-32.69,32.69s-32.69-14.66-32.69-32.69c0-4.02,3.27-7.29,7.29-7.29s7.3,3.27,7.3,7.29c0,9.99,8.12,18.1,18.1,18.1s18.1-8.12,18.1-18.1c0-4.02,3.27-7.29,7.29-7.29s7.3,3.27,7.3,7.29Z"/>
    </g>
    <g>
      <path class="st0" d="M285.71,557.4c-4.27-3.38-11.89-5.07-22.87-5.07-12.15,0-21.76.3-28.84.9-.78.07-1.4.66-1.51,1.44l-11.86,84.35c-.13.96.57,1.83,1.54,1.91,8.03.58,19.3.87,33.82.87,10.31,0,17.72-1.5,22.24-4.5,4.52-3,7.41-8.89,8.68-17.67,2.2-14.87-2.62-22.77-14.45-23.7l.13-.63c5.41-.51,9.46-2.33,12.16-5.45,2.7-3.13,4.52-7.81,5.45-14.07,1.27-8.87-.23-14.99-4.5-18.37ZM271.45,615.44c-.76,5.4-2.39,9.02-4.88,10.83-2.49,1.82-6.86,2.72-13.12,2.72l-15.84-.13,3.93-27.62h16.47c6,.08,9.93,1.08,11.79,2.98,1.86,1.9,2.41,5.64,1.65,11.22ZM274.87,576.66c-.68,5.07-2.2,8.51-4.56,10.33-2.36,1.81-6.25,2.72-11.66,2.72h-15.46l3.42-24.58h15.46c5.66,0,9.38.74,11.15,2.22,1.77,1.48,2.32,4.58,1.65,9.31Z"/>
      <path class="st0" d="M321.1,578.69h-11.83c-.84,0-1.54.61-1.66,1.44l-8.27,58.74c-.14,1.01.64,1.91,1.66,1.91h11.95c.84,0,1.54-.62,1.66-1.45l8.15-58.74c.14-1.01-.64-1.91-1.66-1.91Z"/>
      <path class="st0" d="M322.39,551.7h-6.97c-2.87,0-4.44,1.39-4.69,4.18l-1.01,6.85c-.42,3.21.97,4.81,4.18,4.81h6.97c2.7,0,4.31-1.4,4.82-4.18l.89-6.97c.17-1.43-.11-2.58-.82-3.42-.72-.85-1.84-1.27-3.36-1.27Z"/>
      <path class="st0" d="M380.57,576.91h-1.41c-8.19,0-17.28,4.99-27.25,14.96l.38-13.18h-11.78l-8.48,60.18c-.14,1.01.64,1.91,1.66,1.91h11.94c.84,0,1.55-.62,1.66-1.45l5.13-37.58c4.14-2.71,7.22-4.63,9.25-5.77,2.03-1.14,4.27-2.2,6.72-3.17,2.45-.97,4.69-1.45,6.72-1.45h2.74c.77,0,1.44-.53,1.63-1.28l2.72-11.1c.26-1.06-.54-2.08-1.63-2.08Z"/>
      <path class="st0" d="M450.6,552.08h-12.09c-.83,0-1.54.61-1.66,1.43l-1.94,13.14c-.42,3.89-2.16,16.07-2.33,20.12-25.26-23.79-43.51-5.64-47.34,21.95-1.69,12.17-1.08,20.8,1.84,25.92,2.91,5.11,7.67,7.67,14.26,7.67,9.38,0,18.37-4.48,26.99-13.43l-.33,10.18c-.03.95.73,1.73,1.67,1.73h8.98c.84,0,1.54-.62,1.66-1.44l11.95-85.35c.14-1.01-.64-1.91-1.66-1.91ZM427.94,617.34c-4.56,4.23-8.43,7.25-11.59,9.06-3.17,1.82-6.48,2.72-9.95,2.72-3.38.08-5.43-1.14-6.15-3.68-.72-2.53-.53-7.85.57-15.96.85-6.42,1.9-11.03,3.17-13.81,1.27-2.79,3.07-4.56,5.32-5.51,9.1-3.86,21.29,7.95,21.29,7.95l-2.66,19.23Z"/>
      <path class="st0" d="M524.35,554.08c-7.7-.65-19.94-.99-36.74-.99-13.01,0-19.02,6.88-20.26,16.23l-7.66,54.72c-.09.65-.14,1.3-.11,1.95.32,6.95,4.27,15.04,19.68,15.04s26.94-.28,34.24-.88c.85-.07,1.51-.76,1.54-1.62l.29-8.95c.03-.95-.73-1.73-1.67-1.73h-31.71c-5.31,0-6.74-1.79-6.27-6.72l1.1-8.08c.94-6.66,7.1-11.59,13.83-11.59h22.42c.84,0,1.55-.62,1.66-1.46l1.11-8.42c.13-1-.65-1.89-1.66-1.89h-21.26s-10.18-.18-13.43,4.97c0,0,2.94-20.87,2.95-20.9,1.06-6.85,3.4-7.53,8.02-7.53h32.3c.82,0,1.52-.59,1.65-1.4l1.48-8.84c.16-.97-.53-1.87-1.5-1.95Z"/>
      <path class="st0" d="M592.76,578.69h-12.64c-.81,0-1.5.58-1.64,1.38-2.9,16.22-7.67,31.51-14.33,45.89l-1.65,3.42h-5.83c-1.35,0-2.16-.67-2.41-2.03l-7.75-47.26c-.13-.81-.83-1.4-1.65-1.4h-12.75c-1.06,0-1.85.97-1.64,2.01l10.87,53.88c.34,1.86,1.23,3.36,2.66,4.5,1.44,1.14,3.13,1.71,5.07,1.71h6.46c-3.63,4.73-7.44,8.17-11.41,10.33-3.58,1.94-7.77,3.52-12.58,4.74-.89.23-1.45,1.11-1.24,2l1.69,7.29c.2.84,1.01,1.41,1.87,1.29,8.98-1.32,16.71-4.4,23.19-9.24,6.84-5.11,13.56-13.88,20.15-26.29,7.43-14.12,13.16-30.85,17.2-50.18.22-1.04-.58-2.03-1.65-2.03Z"/>
      <path class="st0" d="M636.38,576.91c-11.66,0-20.02,2.22-25.09,6.66-5.07,4.43-8.41,12.61-10.01,24.52-1.52,11.58-.13,20.17,4.18,25.79,4.31,5.62,12,8.43,23.06,8.43,10.41,0,18.8-1.2,25.18-3.59.7-.26,1.13-.98,1.05-1.73l-.72-7.06c-.09-.93-.94-1.59-1.86-1.49-7.87.88-15.08,1.33-21.62,1.33-4.65,0-8.11-.87-10.39-2.6-2.28-1.73-3.46-5.05-3.55-9.95l19.64-1.64c8.03-.51,13.98-2.12,17.87-4.82,3.89-2.7,6.25-7.09,7.09-13.18.93-6.76-.4-11.89-3.99-15.4-3.59-3.51-10.54-5.26-20.84-5.26ZM646.14,596.18c-.43,3.21-1.46,5.47-3.11,6.78-1.65,1.31-4.24,2.09-7.79,2.34l-17.74,1.52c1.18-7.09,2.91-11.81,5.19-14.13,2.28-2.32,6.21-3.53,11.79-3.61,4.98,0,8.24.38,9.76,1.14,1.52.76,2.15,2.74,1.9,5.96Z"/>
      <path class="st0" d="M549.6,523.76h6.73c2.61,0,4.16-1.35,4.65-4.04l.86-6.73c.16-1.38-.1-2.49-.8-3.3-.69-.82-1.77-1.22-3.24-1.22h-6.73c-2.77,0-4.28,1.35-4.53,4.04l-.98,6.61c-.41,3.1.94,4.65,4.04,4.65Z"/>
      <path class="st0" d="M575.35,523.76c2.61,0,4.16-1.35,4.65-4.04l.86-6.73c.16-1.38-.1-2.49-.8-3.3-.69-.82-1.77-1.22-3.24-1.22h-6.73c-2.77,0-4.28,1.35-4.53,4.04l-.98,6.61c-.41,3.1.94,4.65,4.04,4.65h6.73Z"/>
      <path class="st0" d="M352.93,529.45c-2.77,0-4.28,1.35-4.53,4.04l-.98,6.61c-.41,3.1.94,4.65,4.04,4.65h6.73c2.61,0,4.16-1.35,4.65-4.04l.86-6.73c.16-1.38-.1-2.49-.8-3.3-.69-.82-1.77-1.23-3.24-1.23h-6.73Z"/>
      <path class="st0" d="M378.68,529.45h-6.73c-2.77,0-4.28,1.35-4.53,4.04l-.98,6.61c-.41,3.1.94,4.65,4.04,4.65h6.73c2.61,0,4.16-1.35,4.65-4.04l.86-6.73c.16-1.38-.1-2.49-.8-3.3-.69-.82-1.77-1.23-3.24-1.23Z"/>
      <path class="st0" d="M637.26,527.95c2.61,0,4.16-1.35,4.65-4.04l.86-6.73c.16-1.38-.1-2.49-.8-3.3-.69-.82-1.77-1.22-3.24-1.22h-6.73c-2.77,0-4.28,1.35-4.53,4.04l-.98,6.61c-.41,3.1.94,4.65,4.04,4.65h6.73Z"/>
      <path class="st0" d="M672.83,452.37h-10.75c-.94,0-1.73.69-1.85,1.62l-3.31,24.96c-.98,7.38-7.27,12.89-14.71,12.89h-45.23c-1.95,0-4.68-1.14-5.92-2.64-1.27-1.54-1.83-3.48-1.59-5.48l2.91-23.68c.14-1.11-.73-2.09-1.85-2.09h-10.75c-.94,0-1.74.7-1.85,1.64l-1.18,9.63h-29.83l1.95-14.74c.15-1.12-.72-2.11-1.85-2.11h-10.75c-.94,0-1.73.69-1.85,1.62l-5.67,42.77c-.94,7.09-7.04,12.44-14.19,12.44h-1.93c-.64,0-1.2.44-1.34,1.06l-2.76,11.63c-.21.87.45,1.7,1.34,1.7h4.69c14.34,0,26.57-10.72,28.46-24.94l1.99-15.04h30.06c-.34,7.43,3.13,14.7,9.64,19.02,3.68,2.44,8.07,3.6,12.49,3.6h45.01c14.61,0,27.07-10.92,28.98-25.39l3.49-26.36c.15-1.12-.72-2.11-1.85-2.11Z"/>
      <path class="st0" d="M437.65,428.62c-.94,0-1.73.69-1.85,1.62l-9.78,73.88c-.15,1.12.72,2.11,1.85,2.11h10.76c.94,0,1.73-.69,1.85-1.62l9.78-73.88c.15-1.12-.72-2.11-1.85-2.11h-10.75Z"/>
      <path class="st0" d="M502.42,503.17l6.56-29.83c1-5.77-.58-11.64-4.35-16.12-3.76-4.48-9.28-7.05-15.13-7.05h-19.29c-.88,0-1.63.61-1.82,1.47l-2.33,10.66c-.25,1.16.63,2.26,1.82,2.26h21.62c2.18,0,3.52,1.2,4.12,1.92.6.72,1.56,2.24,1.24,4.08l-4.68,21.28h-32.3c-.84,0-1.58.56-1.8,1.38l-1.72,10.66c-.32,1.19.57,2.35,1.8,2.35h42.45c1.83,0,3.41-1.27,3.81-3.06Z"/>
      <path class="st0" d="M340.65,520.8h62.84l2.12-3.32c.32-.5,7.84-12.39,9.53-24.42,1.33-6.41-.49-13.02-5.01-17.86-3.91-4.18-9.51-6.36-15.24-6.36h-13.54l4.41-7.83c1.71-3.18,4.88-5.23,8.49-5.47l10.38.07c.79-.05,1.47-.6,1.68-1.37l2.88-10.66c.33-1.22-.63-2.41-1.89-2.35l-14-.04c-8.58.57-16.14,5.44-20.14,12.89l-8.42,14.97c-1.62,3.02-1.54,6.58.23,9.52,1.79,2.98,5.15,4.67,8.64,4.67h21.86c2.37,0,3.8,1.33,4.44,2.12.64.79,1.64,2.47,1.12,4.93l-.1.59c-.76,5.75-3.6,11.89-5.54,15.55h-55.13c-.96,0-1.92-.16-2.79-.57-2.96-1.39-4.24-4.6-3.66-7.09l3.45-12.6c.32-1.19-.57-2.36-1.8-2.36h-11.05c-.84,0-1.58.56-1.8,1.37l-2.74,10.04c-1.52,6.47.1,13.19,4.43,18.28,4.05,4.76,10.13,7.32,16.38,7.32Z"/>
      <path class="st0" d="M421.14,426.31h6.52c.4,0,.77-.21.98-.55l.97-1.61c.38-.64,1.07-1.02,1.82-1.02h27.95c.51,0,.96-.34,1.1-.82l2.11-7.23c.21-.73-.34-1.46-1.1-1.46h-25.52l.03-.04h-6.61c-1.6,0-3.08.84-3.91,2.21l-5.32,8.81c-.46.76.09,1.73.98,1.73Z"/>
    </g>
  </g>
</svg>