<?xml version="1.0" encoding="UTF-8"?>
<svg id="Layer_1" xmlns="http://www.w3.org/2000/svg" version="1.1" viewBox="0 0 1080 1080">
  <!-- Generator: Adobe Illustrator 29.7.1, SVG Export Plug-In . SVG Version: 2.1.1 Build 8)  -->
  <g>
    <path d="M790.4,516.19c-3.49,0-6.33,2.84-6.33,6.33,0,4.86-3.96,8.82-8.82,8.82s-8.82-3.96-8.82-8.82c0-3.49-2.84-6.33-6.33-6.33s-6.33,2.84-6.33,6.33c0,11.84,9.63,21.47,21.48,21.47s21.47-9.63,21.47-21.47c0-3.49-2.84-6.33-6.33-6.33Z"/>
    <path d="M775.26,478.53c-27.89,0-50.58,22.69-50.58,50.58,0,35.9,44.3,67.35,46.19,68.67l4.35,3.04,4.37-3.01c1.89-1.3,46.24-32.25,46.24-68.71,0-27.89-22.69-50.58-50.57-50.58ZM810.54,529.11c0,22.84-25.97,45.47-35.25,52.82-9.29-7.43-35.31-30.28-35.31-52.82,0-19.45,15.83-35.28,35.28-35.28s35.28,15.83,35.28,35.28Z"/>
  </g>
  <path d="M541.22,595.6h8.39c3.25,0,5.18-1.68,5.8-5.03l1.07-8.39c.2-1.73-.13-3.1-.99-4.11-.86-1.02-2.21-1.53-4.04-1.53h-8.39c-3.46,0-5.34,1.68-5.64,5.03l-1.22,8.24c-.51,3.86,1.17,5.79,5.03,5.79Z"/>
  <path d="M573.31,595.6c3.25,0,5.18-1.68,5.8-5.03l1.07-8.39c.2-1.73-.13-3.1-.99-4.11-.86-1.02-2.21-1.53-4.04-1.53h-8.39c-3.46,0-5.34,1.68-5.64,5.03l-1.22,8.24c-.51,3.86,1.17,5.79,5.03,5.79h8.39Z"/>
  <path d="M296.1,602.69c-3.46,0-5.34,1.68-5.64,5.03l-1.22,8.24c-.51,3.86,1.17,5.79,5.03,5.79h8.39c3.25,0,5.18-1.68,5.8-5.03l1.07-8.39c.2-1.72-.13-3.1-.99-4.11-.86-1.02-2.21-1.53-4.04-1.53h-8.39Z"/>
  <path d="M328.2,602.69h-8.39c-3.46,0-5.34,1.68-5.64,5.03l-1.22,8.24c-.51,3.86,1.17,5.79,5.03,5.79h8.39c3.25,0,5.18-1.68,5.8-5.03l1.07-8.39c.2-1.72-.13-3.1-.99-4.11-.86-1.02-2.21-1.53-4.04-1.53Z"/>
  <path d="M650.48,600.82c3.25,0,5.18-1.68,5.8-5.03l1.07-8.39c.2-1.73-.13-3.1-.99-4.11-.87-1.02-2.21-1.53-4.04-1.53h-8.39c-3.46,0-5.34,1.68-5.64,5.03l-1.22,8.24c-.51,3.86,1.17,5.79,5.03,5.79h8.39Z"/>
  <path d="M694.81,506.61h-13.4c-1.17,0-2.15.86-2.3,2.02l-4.12,31.11c-1.22,9.2-9.06,16.07-18.34,16.07h-56.37c-2.43,0-5.83-1.42-7.38-3.29-1.58-1.92-2.29-4.33-1.98-6.82l3.63-29.51c.17-1.39-.91-2.61-2.31-2.61h-13.39c-1.17,0-2.16.88-2.31,2.04l-1.48,12h-37.18l2.43-18.37c.18-1.39-.9-2.63-2.3-2.63h-13.4c-1.17,0-2.15.86-2.3,2.02l-7.06,53.31c-1.17,8.84-8.78,15.5-17.69,15.5h-2.4c-.8,0-1.49.55-1.67,1.32l-3.44,14.5c-.26,1.08.56,2.12,1.67,2.12h5.85c17.87,0,33.12-13.36,35.47-31.08l2.48-18.74h37.46c-.42,9.26,3.9,18.32,12.01,23.71,4.59,3.05,10.06,4.49,15.57,4.49h56.09c18.21,0,33.74-13.61,36.12-31.65l4.35-32.86c.18-1.39-.9-2.63-2.3-2.63Z"/>
  <path d="M401.69,477.02c-1.17,0-2.15.86-2.3,2.02l-12.19,92.09c-.18,1.39.9,2.63,2.3,2.63h13.4c1.17,0,2.15-.86,2.3-2.02l12.19-92.09c.18-1.39-.9-2.63-2.3-2.63h-13.4Z"/>
  <path d="M482.42,569.94l8.18-37.18c1.25-7.19-.72-14.51-5.42-20.1-4.69-5.58-11.57-8.79-18.86-8.79h-24.04c-1.09,0-2.04.76-2.27,1.83l-2.91,13.29c-.32,1.45.79,2.82,2.27,2.82h26.94c2.72,0,4.38,1.5,5.13,2.39.75.89,1.94,2.79,1.55,5.08l-5.84,26.52h-40.25c-1.05,0-1.97.7-2.24,1.72l-2.14,13.29c-.4,1.48.71,2.93,2.24,2.93h52.91c2.28,0,4.26-1.59,4.75-3.82Z"/>
  <path d="M280.8,591.91h78.32l2.65-4.14c.4-.63,9.77-15.44,11.88-30.44,1.66-7.99-.62-16.23-6.25-22.26-4.87-5.21-11.86-7.93-18.99-7.93h-16.87l5.49-9.76c2.13-3.97,6.08-6.51,10.58-6.81l12.93.08c.99-.07,1.83-.75,2.09-1.71l3.59-13.29c.41-1.53-.78-3.01-2.36-2.93l-17.45-.06c-10.69.71-20.11,6.78-25.1,16.07l-10.49,18.66c-2.02,3.76-1.92,8.2.28,11.86,2.24,3.72,6.42,5.82,10.76,5.82h27.24c2.96,0,4.74,1.66,5.54,2.64.8.99,2.05,3.07,1.4,6.14l-.13.73c-.95,7.17-4.49,14.81-6.91,19.38h-68.71c-1.2,0-2.4-.2-3.48-.71-3.69-1.73-5.28-5.73-4.56-8.84l4.3-15.7c.4-1.48-.71-2.94-2.24-2.94h-13.77c-1.05,0-1.97.7-2.24,1.71l-3.42,12.51c-1.89,8.07.12,16.44,5.52,22.78,5.05,5.93,12.62,9.12,20.41,9.12Z"/>
  <path d="M381.11,474.14h8.13c.5,0,.96-.26,1.22-.69l1.21-2.01c.48-.79,1.34-1.28,2.26-1.28h34.84c.63,0,1.19-.42,1.37-1.03l2.63-9.02c.27-.91-.42-1.82-1.37-1.82h-31.8l.03-.05h-8.24c-1.99,0-3.84,1.04-4.87,2.75l-6.63,10.98c-.57.95.11,2.16,1.22,2.16Z"/>
</svg>