<?xml version="1.0" standalone="no"?>
<!DOCTYPE svg PUBLIC "-//W3C//DTD SVG 20010904//EN"
 "http://www.w3.org/TR/2001/REC-SVG-20010904/DTD/svg10.dtd">
<svg version="1.0" xmlns="http://www.w3.org/2000/svg"
 width="1080.000000pt" height="454.000000pt" viewBox="0 0 1080.000000 454.000000"
 preserveAspectRatio="xMidYMid meet">

<g transform="translate(0.000000,454.000000) scale(0.100000,-0.100000)"
fill="#000000" stroke="none">
<path d="M3579 4067 c-25 -19 -111 -165 -104 -177 8 -13 135 -13 135 -1 0 5 7
17 16 25 13 14 50 16 244 16 l229 0 15 54 c31 105 54 96 -251 96 -198 -1 -272
-4 -284 -13z"/>
<path d="M3715 3808 c-21 -125 -145 -1109 -143 -1133 l3 -30 99 -3 c55 -1 103
1 107 5 7 8 159 1124 159 1171 0 21 -3 22 -110 22 l-109 0 -6 -32z"/>
<path d="M2979 3636 c-63 -17 -128 -57 -175 -108 -22 -24 -76 -109 -122 -190
-91 -162 -100 -203 -62 -265 39 -64 51 -67 293 -73 l219 -5 24 -28 c13 -15 24
-40 24 -54 0 -40 -29 -141 -60 -210 l-29 -63 -443 0 c-489 0 -476 -2 -503 63
-11 27 -9 44 17 143 17 62 28 120 24 129 -5 13 -23 15 -113 13 l-107 -3 -29
-105 c-22 -84 -27 -118 -23 -170 10 -114 72 -205 178 -262 l43 -23 542 -3 541
-3 20 28 c35 49 109 205 132 278 12 40 24 109 27 161 5 83 3 97 -19 146 -34
75 -79 122 -146 155 -53 26 -67 28 -204 31 -82 2 -148 6 -148 9 0 13 81 141
102 159 36 33 83 44 183 44 l92 0 26 97 c19 71 23 100 15 110 -14 17 -254 17
-319 -1z"/>
<path d="M4225 3498 c-12 -34 -35 -152 -35 -178 l0 -29 194 -3 c190 -3 195 -4
220 -27 34 -32 33 -46 -9 -234 -19 -86 -35 -159 -35 -162 0 -3 -117 -5 -260
-5 -202 0 -262 -3 -266 -13 -14 -38 -31 -183 -22 -194 8 -10 91 -13 353 -13
312 0 345 2 363 18 30 25 136 512 126 581 -14 104 -74 189 -169 239 -49 26
-55 27 -253 30 -161 3 -203 1 -207 -10z"/>
<path d="M5253 3468 c-4 -7 -28 -172 -54 -366 -42 -309 -51 -358 -73 -396 -37
-63 -94 -99 -168 -104 -49 -4 -61 -8 -69 -26 -17 -40 -50 -187 -44 -196 4 -6
32 -10 64 -10 208 0 373 107 445 289 12 31 56 287 56 328 0 2 105 3 234 3
l234 0 4 -58 c8 -108 79 -206 187 -260 l56 -27 413 -3 c270 -2 432 1 466 8
130 27 255 120 311 231 39 76 41 86 75 342 24 177 28 232 19 243 -8 10 -37 14
-105 14 -89 0 -95 -1 -104 -22 -5 -13 -21 -113 -35 -223 -29 -226 -44 -269
-113 -322 -66 -50 -109 -54 -510 -51 -348 3 -362 4 -389 24 -59 44 -60 51 -33
271 13 110 20 207 17 217 -6 14 -20 16 -109 14 l-102 -3 -7 -40 c-4 -22 -10
-61 -14 -87 l-6 -48 -231 0 -230 0 5 33 c3 17 11 74 18 125 10 79 10 95 -2
103 -22 14 -196 11 -206 -3z"/>
<path d="M8895 3464 c-467 -83 -851 -439 -972 -901 -34 -132 -43 -363 -19
-502 46 -261 187 -541 423 -836 111 -140 353 -382 508 -511 236 -195 260 -206
341 -159 149 88 564 471 718 665 172 216 314 465 375 657 101 318 78 641 -67
928 -61 123 -112 194 -206 294 -187 195 -420 320 -683 366 -106 19 -311 18
-418 -1z m413 -229 c200 -42 358 -129 507 -279 121 -123 187 -228 238 -383
142 -432 -3 -848 -480 -1369 -115 -125 -438 -414 -464 -414 -18 0 -274 228
-400 356 -347 354 -530 659 -585 975 -40 229 23 497 167 704 70 102 206 228
312 291 99 59 268 118 377 133 90 12 236 6 328 -14z"/>
<path d="M8647 2517 c-38 -30 -47 -72 -36 -159 20 -162 131 -312 285 -385 70
-34 86 -37 185 -41 89 -4 119 -1 176 16 160 49 284 172 333 331 26 81 26 187
2 217 -42 53 -114 59 -163 16 -27 -24 -33 -39 -41 -93 -11 -81 -49 -160 -96
-199 -180 -149 -432 -42 -461 196 -7 58 -12 71 -40 96 -41 36 -103 39 -144 5z"/>
<path d="M5456 2586 c-19 -18 -25 -38 -31 -101 -5 -48 -4 -85 2 -94 8 -12 30
-17 89 -19 43 -2 88 -1 100 2 28 8 42 42 50 129 6 70 5 75 -17 91 -17 11 -45
16 -97 16 -63 0 -76 -3 -96 -24z"/>
<path d="M5758 2599 c-19 -11 -33 -56 -43 -140 -10 -79 3 -89 106 -89 44 0 89
5 99 10 21 11 34 53 44 137 6 44 4 55 -14 73 -17 17 -33 20 -97 20 -43 0 -86
-5 -95 -11z"/>
<path d="M6706 2525 c-16 -16 -29 -83 -30 -155 -1 -59 22 -72 121 -68 95 4
108 17 122 118 8 62 7 79 -5 97 -13 21 -22 23 -104 23 -66 0 -92 -4 -104 -15z"/>
<path d="M2386 2267 c-20 -15 -34 -80 -35 -160 -1 -42 2 -49 25 -57 32 -13
135 -13 168 0 34 13 43 33 51 121 9 102 2 109 -109 109 -53 0 -89 -5 -100 -13z"/>
<path d="M2677 2262 c-10 -11 -22 -53 -29 -101 -15 -107 -8 -114 101 -119 70
-4 80 -2 104 20 21 19 28 37 36 98 15 111 7 120 -108 120 -72 0 -91 -3 -104
-18z"/>
<path d="M1814 1931 c-27 -12 -30 -21 -45 -120 -16 -113 -8 -121 113 -121 108
0 123 11 134 97 11 84 10 121 -4 136 -16 15 -167 21 -198 8z"/>
<path d="M713 1921 c-72 -3 -135 -9 -138 -13 -4 -4 -49 -305 -101 -670 -76
-538 -91 -665 -80 -676 17 -18 581 -29 686 -13 163 24 227 61 278 161 60 118
77 310 37 406 -30 74 -91 117 -190 137 -13 2 -7 6 20 12 158 31 239 160 239
380 1 84 -3 107 -21 142 -68 127 -227 156 -730 134z m417 -202 c86 -20 109
-65 90 -177 -14 -87 -44 -140 -95 -166 -35 -19 -61 -21 -216 -24 l-175 -4 23
179 c14 98 26 184 28 191 5 15 278 17 345 1z m-79 -559 c73 -14 101 -37 116
-94 15 -59 1 -164 -30 -226 -17 -35 -33 -51 -72 -70 -47 -23 -61 -25 -232 -28
-157 -3 -183 -2 -183 11 0 18 48 363 55 395 5 22 8 22 149 22 79 0 168 -5 197
-10z"/>
<path d="M3737 1923 c-4 -7 -41 -268 -64 -460 l-8 -62 -63 49 c-97 75 -162
103 -258 108 -72 4 -89 1 -138 -21 -78 -36 -138 -102 -191 -210 -57 -115 -83
-232 -91 -402 -8 -148 7 -232 53 -298 99 -143 351 -122 556 48 l67 55 0 -85 0
-85 90 0 c64 0 92 4 95 13 7 19 185 1301 185 1331 l0 26 -114 0 c-63 0 -117
-3 -119 -7z m-269 -596 c81 -34 162 -97 162 -126 0 -14 -8 -83 -17 -154 l-17
-129 -80 -64 c-45 -36 -101 -74 -125 -86 -48 -23 -133 -35 -175 -24 -57 14
-68 92 -41 283 27 191 53 259 115 300 43 30 108 30 178 0z"/>
<path d="M4447 1908 c-109 -14 -191 -77 -223 -171 -18 -53 -134 -881 -134
-957 0 -118 76 -197 212 -220 83 -14 582 -6 625 11 23 8 24 12 21 96 l-3 88
-285 5 c-157 3 -291 9 -298 13 -27 18 -31 54 -18 149 15 103 29 139 73 180 58
55 90 62 316 66 148 3 207 7 207 15 0 7 5 41 10 75 5 35 6 70 3 79 -5 13 -37
14 -227 11 -218 -3 -223 -3 -274 -30 -38 -20 -52 -23 -52 -13 0 30 42 302 51
331 22 69 20 68 343 74 l291 5 12 55 c6 30 12 71 12 92 l1 36 -92 6 c-161 10
-511 12 -571 4z"/>
<path d="M2772 1539 c-91 -18 -204 -83 -299 -172 l-53 -50 0 102 0 101 -90 0
c-49 0 -90 -1 -90 -2 0 -2 -29 -210 -65 -462 -36 -253 -65 -468 -65 -478 0
-17 8 -18 117 -16 l118 3 40 297 c23 163 43 299 45 301 3 2 34 23 70 45 111
69 195 104 265 110 36 2 69 10 73 16 5 6 19 51 31 100 29 119 20 128 -97 105z"/>
<path d="M6705 1540 c-279 -32 -389 -164 -426 -510 -41 -379 127 -528 552
-492 118 10 259 38 276 56 3 3 2 38 -3 78 l-9 73 -35 -2 c-395 -19 -431 -16
-489 33 -21 18 -33 40 -42 79 -7 31 -10 57 -7 60 3 3 99 14 214 25 261 24 327
42 393 108 57 58 82 128 83 234 0 142 -56 213 -192 246 -64 15 -233 22 -315
12z m241 -204 c28 -19 38 -63 25 -114 -24 -89 -59 -106 -251 -122 -69 -6 -137
-12 -152 -15 -24 -4 -28 -1 -28 19 0 38 38 151 61 180 43 55 121 77 243 71 46
-3 88 -11 102 -19z"/>
<path d="M1735 1508 c-10 -26 -134 -931 -129 -939 9 -15 224 -11 230 4 9 25
131 922 127 935 -4 8 -36 12 -114 12 -79 0 -111 -4 -114 -12z"/>
<path d="M5187 1506 c-3 -7 35 -211 84 -452 86 -427 89 -440 119 -467 27 -24
38 -27 100 -27 42 0 70 -4 70 -10 0 -22 -90 -107 -151 -143 -35 -20 -98 -48
-141 -63 -43 -14 -81 -30 -84 -35 -3 -6 2 -41 11 -80 20 -80 21 -80 134 -53
106 25 241 97 318 168 157 146 316 427 423 747 50 149 111 394 103 415 -4 12
-26 14 -121 12 l-116 -3 -8 -30 c-4 -16 -23 -97 -43 -178 -41 -168 -84 -297
-153 -459 l-49 -113 -50 -3 c-33 -2 -55 2 -65 11 -8 9 -35 150 -72 378 -32
200 -63 372 -68 382 -7 15 -24 17 -122 17 -87 0 -115 -3 -119 -14z"/>
</g>
</svg>
